<svg xmlns="http://www.w3.org/2000/svg" width="36" height="51" viewBox="0 0 36 51"><defs><style>.a{fill:#fff;}.b{fill:#c00000;}.c,.d{stroke:none;}</style></defs><g transform="translate(-216 -197)"><g class="a" transform="translate(216 197)"><path class="c" d="M 29.99970054626465 49.00030136108398 L 6.00029993057251 49.00030136108398 C 4.819329738616943 49.00030136108398 3.756238460540771 48.48588562011719 3.023334980010986 47.66936874389648 C 3.756303548812866 48.48562240600586 4.819346904754639 48.99980163574219 6.00029993057251 48.99980163574219 L 29.99970054626465 48.99980163574219 C 31.1806526184082 48.99980163574219 32.24369812011719 48.48562240600586 32.97666549682617 47.66936874389648 C 32.2437629699707 48.48588562011719 31.1806697845459 49.00030136108398 29.99970054626465 49.00030136108398 Z"/><path class="d" d="M 29.99970054626465 51.00030136108398 L 6.00029993057251 51.00030136108398 C 2.691720008850098 51.00030136108398 0 48.3085823059082 0 45 L 0 6.000300884246826 C 0 2.691720724105835 2.691720008850098 6.805419729971618e-07 6.00029993057251 6.805419729971618e-07 L 29.99970054626465 6.805419729971618e-07 C 33.30828094482422 6.805419729971618e-07 36 2.691720724105835 36 6.000300884246826 L 36 45 C 36 48.3085823059082 33.30828094482422 51.00030136108398 29.99970054626465 51.00030136108398 Z M 6.00029993057251 3.999600648880005 C 4.897109985351562 3.999600648880005 3.999599933624268 4.897110462188721 3.999599933624268 6.000300884246826 L 3.999599933624268 45 C 3.999599933624268 46.10269165039062 4.897109985351562 46.99980163574219 6.00029993057251 46.99980163574219 L 29.99970054626465 46.99980163574219 C 31.10289001464844 46.99980163574219 32.00040054321289 46.10269165039062 32.00040054321289 45 L 32.00040054321289 6.000300884246826 C 32.00040054321289 4.897110462188721 31.10289001464844 3.999600648880005 29.99970054626465 3.999600648880005 L 6.00029993057251 3.999600648880005 Z"/></g><path class="b" d="M-3.28,0V-14H-5.54a3.091,3.091,0,0,1-.5,1.34,3.043,3.043,0,0,1-.93.87,3.73,3.73,0,0,1-1.24.46,6.723,6.723,0,0,1-1.43.11v2.14h3.52V0ZM3.26-7.06q0-.36.01-.87t.07-1.05a7.372,7.372,0,0,1,.2-1.07A3.689,3.689,0,0,1,3.93-11a2.087,2.087,0,0,1,.64-.68,1.711,1.711,0,0,1,.97-.26,1.76,1.76,0,0,1,.98.26,2.145,2.145,0,0,1,.66.68,3.272,3.272,0,0,1,.39.95,9.749,9.749,0,0,1,.2,1.07,9.639,9.639,0,0,1,.08,1.05q.01.51.01.87,0,.6-.04,1.45a7.791,7.791,0,0,1-.25,1.64,3.443,3.443,0,0,1-.68,1.35,1.664,1.664,0,0,1-1.35.56,1.611,1.611,0,0,1-1.32-.56,3.519,3.519,0,0,1-.67-1.35A7.791,7.791,0,0,1,3.3-5.61Q3.26-6.46,3.26-7.06Zm-2.84,0A12.772,12.772,0,0,0,.83-3.55,6.173,6.173,0,0,0,1.94-1.3,3.981,3.981,0,0,0,3.57-.1,5.409,5.409,0,0,0,5.54.26,5.464,5.464,0,0,0,7.53-.1,4.054,4.054,0,0,0,9.17-1.3a6.076,6.076,0,0,0,1.12-2.25,12.772,12.772,0,0,0,.41-3.51,12.291,12.291,0,0,0-.41-3.43,6.081,6.081,0,0,0-1.12-2.23,4.054,4.054,0,0,0-1.64-1.2,5.464,5.464,0,0,0-1.99-.36,5.409,5.409,0,0,0-1.97.36,3.981,3.981,0,0,0-1.63,1.2A6.178,6.178,0,0,0,.83-10.49,12.291,12.291,0,0,0,.42-7.06ZM0,21.3c.48-.5.48-.5,2.6-2.74a27.182,27.182,0,0,0,4.24-5.5A8.176,8.176,0,0,0,8.06,8.78,4.833,4.833,0,0,0,6.2,4.56,4.256,4.256,0,0,0,3.82,3.8a4.8,4.8,0,0,0-2.04.46,3.383,3.383,0,0,0-1.5,2.3c-.1.6-.16.72-.28.72s-.14-.06-.28-.72A3.531,3.531,0,0,0-1.64,4.34,3.4,3.4,0,0,0-3.66,3.8a3.877,3.877,0,0,0-3.4,1.66,5.934,5.934,0,0,0-1,3.28c0,1.96.98,4.28,2.94,6.86A46.925,46.925,0,0,0,0,21.3Z" transform="translate(234 219)"/></g></svg>