<svg xmlns="http://www.w3.org/2000/svg" width="36" height="51" viewBox="0 0 36 51"><defs><style>.a{fill:#fff;}.b,.c{stroke:none;}</style></defs><g transform="translate(-216 -197)"><g class="a" transform="translate(216 197)"><path class="b" d="M 29.99970054626465 49.00030136108398 L 6.00029993057251 49.00030136108398 C 4.819329738616943 49.00030136108398 3.756238460540771 48.48588562011719 3.023334980010986 47.66936874389648 C 3.756303548812866 48.48562240600586 4.819346904754639 48.99980163574219 6.00029993057251 48.99980163574219 L 29.99970054626465 48.99980163574219 C 31.1806526184082 48.99980163574219 32.24369812011719 48.48562240600586 32.97666549682617 47.66936874389648 C 32.2437629699707 48.48588562011719 31.1806697845459 49.00030136108398 29.99970054626465 49.00030136108398 Z"/><path class="c" d="M 29.99970054626465 51.00030136108398 L 6.00029993057251 51.00030136108398 C 2.691720008850098 51.00030136108398 0 48.3085823059082 0 45 L 0 6.000300884246826 C 0 2.691720724105835 2.691720008850098 6.805419729971618e-07 6.00029993057251 6.805419729971618e-07 L 29.99970054626465 6.805419729971618e-07 C 33.30828094482422 6.805419729971618e-07 36 2.691720724105835 36 6.000300884246826 L 36 45 C 36 48.3085823059082 33.30828094482422 51.00030136108398 29.99970054626465 51.00030136108398 Z M 6.00029993057251 3.999600648880005 C 4.897109985351562 3.999600648880005 3.999599933624268 4.897110462188721 3.999599933624268 6.000300884246826 L 3.999599933624268 45 C 3.999599933624268 46.10269165039062 4.897109985351562 46.99980163574219 6.00029993057251 46.99980163574219 L 29.99970054626465 46.99980163574219 C 31.10289001464844 46.99980163574219 32.00040054321289 46.10269165039062 32.00040054321289 45 L 32.00040054321289 6.000300884246826 C 32.00040054321289 4.897110462188721 31.10289001464844 3.999600648880005 29.99970054626465 3.999600648880005 L 6.00029993057251 3.999600648880005 Z"/></g><path d="M-4.82-8.62H-2.1a5.952,5.952,0,0,1,.11-1.13,3.505,3.505,0,0,1,.37-1.04,2.165,2.165,0,0,1,.69-.76,1.834,1.834,0,0,1,1.05-.29,2.084,2.084,0,0,1,1.51.57,2.107,2.107,0,0,1,.59,1.59,2.23,2.23,0,0,1-.29,1.14,3.888,3.888,0,0,1-.72.9,6.517,6.517,0,0,1-.95.73q-.52.33-.98.65-.9.62-1.71,1.22A8.31,8.31,0,0,0-3.84-3.73a5.641,5.641,0,0,0-.95,1.61A5.837,5.837,0,0,0-5.14,0H5.14V-2.44H-1.48A6.337,6.337,0,0,1-.28-3.7q.68-.54,1.4-1.01t1.43-.95A7.649,7.649,0,0,0,3.82-6.73a4.78,4.78,0,0,0,.9-1.35A4.434,4.434,0,0,0,5.06-9.9a4.231,4.231,0,0,0-.39-1.84,4.084,4.084,0,0,0-1.05-1.38,4.714,4.714,0,0,0-1.53-.86,5.574,5.574,0,0,0-1.83-.3,5.454,5.454,0,0,0-2.23.43,4.349,4.349,0,0,0-1.61,1.2,5.19,5.19,0,0,0-.96,1.8A6.717,6.717,0,0,0-4.82-8.62ZM.02,3.58c-.62.9-.86,1.22-1.8,2.38A53.07,53.07,0,0,0-5.7,10.98a6.824,6.824,0,0,0-1.42,3.88A3.426,3.426,0,0,0-3.68,18.6a2.447,2.447,0,0,0,2.1-.88,5.011,5.011,0,0,0,.84-1.7q.03-.12.12-.12c.1,0,.16.1.16.26A13.226,13.226,0,0,1-.92,18.5,6.1,6.1,0,0,1-2.5,21.16,11.6,11.6,0,0,1,.02,20.9a15.61,15.61,0,0,1,2.42.26,7.833,7.833,0,0,1-1.5-2.52,10.027,10.027,0,0,1-.5-2.42c0-.18.06-.32.16-.32s.16.12.24.5a2.683,2.683,0,0,0,2.82,2.2A3.449,3.449,0,0,0,5.64,18,3.787,3.787,0,0,0,7.1,14.92a6.707,6.707,0,0,0-.74-2.74A24.2,24.2,0,0,0,3.68,8.32C1.44,5.46,1.44,5.46.02,3.58Z" transform="translate(234 219)"/></g></svg>