<svg xmlns="http://www.w3.org/2000/svg" width="36" height="51" viewBox="0 0 36 51"><defs><style>.a{fill:#fff;}.b{fill:#c00000;}.c,.d{stroke:none;}</style></defs><g transform="translate(-216 -197)"><g class="a" transform="translate(216 197)"><path class="c" d="M 29.99970054626465 49.00030136108398 L 6.00029993057251 49.00030136108398 C 4.819329738616943 49.00030136108398 3.756238460540771 48.48588562011719 3.023334980010986 47.66936874389648 C 3.756303548812866 48.48562240600586 4.819346904754639 48.99980163574219 6.00029993057251 48.99980163574219 L 29.99970054626465 48.99980163574219 C 31.1806526184082 48.99980163574219 32.24369812011719 48.48562240600586 32.97666549682617 47.66936874389648 C 32.2437629699707 48.48588562011719 31.1806697845459 49.00030136108398 29.99970054626465 49.00030136108398 Z"/><path class="d" d="M 29.99970054626465 51.00030136108398 L 6.00029993057251 51.00030136108398 C 2.691720008850098 51.00030136108398 0 48.3085823059082 0 45 L 0 6.000300884246826 C 0 2.691720724105835 2.691720008850098 6.805419729971618e-07 6.00029993057251 6.805419729971618e-07 L 29.99970054626465 6.805419729971618e-07 C 33.30828094482422 6.805419729971618e-07 36 2.691720724105835 36 6.000300884246826 L 36 45 C 36 48.3085823059082 33.30828094482422 51.00030136108398 29.99970054626465 51.00030136108398 Z M 6.00029993057251 3.999600648880005 C 4.897109985351562 3.999600648880005 3.999599933624268 4.897110462188721 3.999599933624268 6.000300884246826 L 3.999599933624268 45 C 3.999599933624268 46.10269165039062 4.897109985351562 46.99980163574219 6.00029993057251 46.99980163574219 L 29.99970054626465 46.99980163574219 C 31.10289001464844 46.99980163574219 32.00040054321289 46.10269165039062 32.00040054321289 45 L 32.00040054321289 6.000300884246826 C 32.00040054321289 4.897110462188721 31.10289001464844 3.999600648880005 29.99970054626465 3.999600648880005 L 6.00029993057251 3.999600648880005 Z"/></g><path class="b" d="M-1-8.34v2q.52,0,1.09.03a3.307,3.307,0,0,1,1.05.22,1.778,1.778,0,0,1,.79.61,2.034,2.034,0,0,1,.31,1.22,2.05,2.05,0,0,1-.66,1.61,2.343,2.343,0,0,1-1.62.59,2.413,2.413,0,0,1-1.07-.22,2.188,2.188,0,0,1-.75-.59,2.631,2.631,0,0,1-.46-.88A4.04,4.04,0,0,1-2.5-4.82H-5.2a5.611,5.611,0,0,0,.35,2.16A4.389,4.389,0,0,0-3.8-1.07a4.51,4.51,0,0,0,1.65.99A6.465,6.465,0,0,0,0,.26a6.407,6.407,0,0,0,1.96-.3A5.079,5.079,0,0,0,3.62-.92,4.281,4.281,0,0,0,4.77-2.36,4.324,4.324,0,0,0,5.2-4.32a3.284,3.284,0,0,0-.66-2.06A3.049,3.049,0,0,0,2.72-7.5v-.04A2.457,2.457,0,0,0,4.19-8.6a3.312,3.312,0,0,0,.49-1.8,3.234,3.234,0,0,0-.42-1.66,4.06,4.06,0,0,0-1.09-1.22,4.782,4.782,0,0,0-1.51-.75,5.864,5.864,0,0,0-1.68-.25,5.261,5.261,0,0,0-1.96.35,4.341,4.341,0,0,0-1.51.99,4.5,4.5,0,0,0-.98,1.53,5.95,5.95,0,0,0-.39,1.97h2.7a2.749,2.749,0,0,1,.53-1.79A1.935,1.935,0,0,1,0-11.94a2.147,2.147,0,0,1,1.38.48,1.664,1.664,0,0,1,.6,1.38,1.485,1.485,0,0,1-.29.96,1.862,1.862,0,0,1-.74.55,3.085,3.085,0,0,1-.97.23A6.007,6.007,0,0,1-1-8.34ZM0,2.9l-7.2,9.36L0,21.88l7.2-9.62Z" transform="translate(234 219)"/></g></svg>