<svg xmlns="http://www.w3.org/2000/svg" width="36" height="51" viewBox="0 0 36 51"><defs><style>.a{fill:#fff;}.b{fill:#c00000;}.c,.d{stroke:none;}</style></defs><g transform="translate(-216 -197)"><g class="a" transform="translate(216 197)"><path class="c" d="M 29.99970054626465 49.00030136108398 L 6.00029993057251 49.00030136108398 C 4.819329738616943 49.00030136108398 3.756238460540771 48.48588562011719 3.023334980010986 47.66936874389648 C 3.756303548812866 48.48562240600586 4.819346904754639 48.99980163574219 6.00029993057251 48.99980163574219 L 29.99970054626465 48.99980163574219 C 31.1806526184082 48.99980163574219 32.24369812011719 48.48562240600586 32.97666549682617 47.66936874389648 C 32.2437629699707 48.48588562011719 31.1806697845459 49.00030136108398 29.99970054626465 49.00030136108398 Z"/><path class="d" d="M 29.99970054626465 51.00030136108398 L 6.00029993057251 51.00030136108398 C 2.691720008850098 51.00030136108398 0 48.3085823059082 0 45 L 0 6.000300884246826 C 0 2.691720724105835 2.691720008850098 6.805419729971618e-07 6.00029993057251 6.805419729971618e-07 L 29.99970054626465 6.805419729971618e-07 C 33.30828094482422 6.805419729971618e-07 36 2.691720724105835 36 6.000300884246826 L 36 45 C 36 48.3085823059082 33.30828094482422 51.00030136108398 29.99970054626465 51.00030136108398 Z M 6.00029993057251 3.999600648880005 C 4.897109985351562 3.999600648880005 3.999599933624268 4.897110462188721 3.999599933624268 6.000300884246826 L 3.999599933624268 45 C 3.999599933624268 46.10269165039062 4.897109985351562 46.99980163574219 6.00029993057251 46.99980163574219 L 29.99970054626465 46.99980163574219 C 31.10289001464844 46.99980163574219 32.00040054321289 46.10269165039062 32.00040054321289 45 L 32.00040054321289 6.000300884246826 C 32.00040054321289 4.897110462188721 31.10289001464844 3.999600648880005 29.99970054626465 3.999600648880005 L 6.00029993057251 3.999600648880005 Z"/></g><path class="b" d="M4.44-11.66V-14H-3.38L-4.76-6.26H-2.2a2.9,2.9,0,0,1,.9-.85A2.513,2.513,0,0,1-.06-7.38a2.443,2.443,0,0,1,1.02.2,2.253,2.253,0,0,1,.76.56,2.383,2.383,0,0,1,.48.84,3.2,3.2,0,0,1,.16,1.02,3.06,3.06,0,0,1-.17,1.01,2.705,2.705,0,0,1-.48.86,2.408,2.408,0,0,1-.76.6,2.187,2.187,0,0,1-1.01.23,2.244,2.244,0,0,1-1.58-.57,2.322,2.322,0,0,1-.72-1.53H-5.2a4.313,4.313,0,0,0,.45,1.93A4.163,4.163,0,0,0-3.6-.84a4.869,4.869,0,0,0,1.65.83A6.959,6.959,0,0,0,0,.26,5.141,5.141,0,0,0,2-.09,5.015,5.015,0,0,0,3.65-1.14,5.125,5.125,0,0,0,4.78-2.75,4.826,4.826,0,0,0,5.2-4.76a5.813,5.813,0,0,0-.29-1.85,4.444,4.444,0,0,0-.84-1.51A4.041,4.041,0,0,0,2.72-9.14,4.241,4.241,0,0,0,.88-9.52a4.213,4.213,0,0,0-1.5.25,3.527,3.527,0,0,0-1.24.83l-.04-.04.56-3.18ZM0,2.9l-7.2,9.36L0,21.88l7.2-9.62Z" transform="translate(234 219)"/></g></svg>