<svg xmlns="http://www.w3.org/2000/svg" width="36" height="51" viewBox="0 0 36 51"><defs><style>.a{fill:#fff;}.b,.c{stroke:none;}</style></defs><g transform="translate(-216 -197)"><g class="a" transform="translate(216 197)"><path class="b" d="M 29.99970054626465 49.00030136108398 L 6.00029993057251 49.00030136108398 C 4.819329738616943 49.00030136108398 3.756238460540771 48.48588562011719 3.023334980010986 47.66936874389648 C 3.756303548812866 48.48562240600586 4.819346904754639 48.99980163574219 6.00029993057251 48.99980163574219 L 29.99970054626465 48.99980163574219 C 31.1806526184082 48.99980163574219 32.24369812011719 48.48562240600586 32.97666549682617 47.66936874389648 C 32.2437629699707 48.48588562011719 31.1806697845459 49.00030136108398 29.99970054626465 49.00030136108398 Z"/><path class="c" d="M 29.99970054626465 51.00030136108398 L 6.00029993057251 51.00030136108398 C 2.691720008850098 51.00030136108398 0 48.3085823059082 0 45 L 0 6.000300884246826 C 0 2.691720724105835 2.691720008850098 6.805419729971618e-07 6.00029993057251 6.805419729971618e-07 L 29.99970054626465 6.805419729971618e-07 C 33.30828094482422 6.805419729971618e-07 36 2.691720724105835 36 6.000300884246826 L 36 45 C 36 48.3085823059082 33.30828094482422 51.00030136108398 29.99970054626465 51.00030136108398 Z M 6.00029993057251 3.999600648880005 C 4.897109985351562 3.999600648880005 3.999599933624268 4.897110462188721 3.999599933624268 6.000300884246826 L 3.999599933624268 45 C 3.999599933624268 46.10269165039062 4.897109985351562 46.99980163574219 6.00029993057251 46.99980163574219 L 29.99970054626465 46.99980163574219 C 31.10289001464844 46.99980163574219 32.00040054321289 46.10269165039062 32.00040054321289 45 L 32.00040054321289 6.000300884246826 C 32.00040054321289 4.897110462188721 31.10289001464844 3.999600648880005 29.99970054626465 3.999600648880005 L 6.00029993057251 3.999600648880005 Z"/></g><path d="M.16-7.26a1.909,1.909,0,0,1,.95.23,2,2,0,0,1,.67.6,2.7,2.7,0,0,1,.39.84,3.622,3.622,0,0,1,.13.97,3.211,3.211,0,0,1-.14.94,2.514,2.514,0,0,1-.42.82,2.23,2.23,0,0,1-.67.58,1.821,1.821,0,0,1-.91.22A2.038,2.038,0,0,1-.8-2.28a2.172,2.172,0,0,1-.71-.59,2.659,2.659,0,0,1-.44-.84,3.108,3.108,0,0,1-.15-.95,3.45,3.45,0,0,1,.14-.99,2.5,2.5,0,0,1,.42-.83,1.992,1.992,0,0,1,.71-.57A2.229,2.229,0,0,1,.16-7.26ZM2.2-10.4H4.9a4.842,4.842,0,0,0-.5-1.66,3.878,3.878,0,0,0-.98-1.21,4.317,4.317,0,0,0-1.38-.75,5.281,5.281,0,0,0-1.68-.26,4.646,4.646,0,0,0-2.54.66,5.407,5.407,0,0,0-1.7,1.71,7.582,7.582,0,0,0-.96,2.35,11.529,11.529,0,0,0-.3,2.6A14.348,14.348,0,0,0-4.9-4.33a6.8,6.8,0,0,0,.86,2.31A4.854,4.854,0,0,0-2.38-.37,4.983,4.983,0,0,0,.24.26a4.979,4.979,0,0,0,2-.39A4.635,4.635,0,0,0,3.79-1.21a4.8,4.8,0,0,0,1-1.62,5.661,5.661,0,0,0,.35-2.01A5.462,5.462,0,0,0,4.88-6.5a4.053,4.053,0,0,0-.82-1.46A4.4,4.4,0,0,0,2.6-9.01,4.221,4.221,0,0,0,.84-9.4a4.253,4.253,0,0,0-1.8.36,3.4,3.4,0,0,0-1.36,1.2l-.04-.04A8.826,8.826,0,0,1-2.2-9.2a5.936,5.936,0,0,1,.44-1.39,3.279,3.279,0,0,1,.81-1.1,1.85,1.85,0,0,1,1.27-.45,1.651,1.651,0,0,1,1.24.52A2.409,2.409,0,0,1,2.2-10.4Zm.34,31.48a8.645,8.645,0,0,1-1.4-2.38A11.839,11.839,0,0,1,.6,15.18c0-.78.02-.9.18-.9.1,0,.18.1.22.28a3.7,3.7,0,0,0,.44,1.4,3.718,3.718,0,0,0,3.34,2.2,3.932,3.932,0,0,0,2.76-1.2,4.109,4.109,0,0,0,1.06-2.9,3.722,3.722,0,0,0-3.92-3.64,3.078,3.078,0,0,0-2.4.92c-.2.2-.28.24-.4.24a.2.2,0,0,1-.2-.18c0-.1.08-.22.26-.36a4.555,4.555,0,0,0,.68-.7A4.257,4.257,0,0,0,3.76,7.46,3.85,3.85,0,0,0-.04,3.6,3.9,3.9,0,0,0-3.2,5.32,4.059,4.059,0,0,0-3.78,7.4a4.626,4.626,0,0,0,1.3,3.1c.78.78.78.78.78.88a.222.222,0,0,1-.22.22c-.08,0-.16-.04-.36-.2a3.638,3.638,0,0,0-2.56-.98,3.645,3.645,0,0,0-3.76,3.8,3.838,3.838,0,0,0,3.68,3.9,3.519,3.519,0,0,0,2.54-.96,4.074,4.074,0,0,0,1.26-2.12c.14-.74.14-.76.3-.76.14,0,.2.14.2.44a12.74,12.74,0,0,1-.4,3.46,9.166,9.166,0,0,1-1.54,2.9A15.077,15.077,0,0,1-.1,20.92,18.913,18.913,0,0,1,2.54,21.08Z" transform="translate(234 219)"/></g></svg>