<svg xmlns="http://www.w3.org/2000/svg" width="36" height="51" viewBox="0 0 36 51"><defs><style>.a{fill:#fff;}.b{fill:#c00000;}.c,.d{stroke:none;}</style></defs><g transform="translate(-216 -197)"><g class="a" transform="translate(216 197)"><path class="c" d="M 29.99970054626465 49.00030136108398 L 6.00029993057251 49.00030136108398 C 4.819329738616943 49.00030136108398 3.756238460540771 48.48588562011719 3.023334980010986 47.66936874389648 C 3.756303548812866 48.48562240600586 4.819346904754639 48.99980163574219 6.00029993057251 48.99980163574219 L 29.99970054626465 48.99980163574219 C 31.1806526184082 48.99980163574219 32.24369812011719 48.48562240600586 32.97666549682617 47.66936874389648 C 32.2437629699707 48.48588562011719 31.1806697845459 49.00030136108398 29.99970054626465 49.00030136108398 Z"/><path class="d" d="M 29.99970054626465 51.00030136108398 L 6.00029993057251 51.00030136108398 C 2.691720008850098 51.00030136108398 0 48.3085823059082 0 45 L 0 6.000300884246826 C 0 2.691720724105835 2.691720008850098 6.805419729971618e-07 6.00029993057251 6.805419729971618e-07 L 29.99970054626465 6.805419729971618e-07 C 33.30828094482422 6.805419729971618e-07 36 2.691720724105835 36 6.000300884246826 L 36 45 C 36 48.3085823059082 33.30828094482422 51.00030136108398 29.99970054626465 51.00030136108398 Z M 6.00029993057251 3.999600648880005 C 4.897109985351562 3.999600648880005 3.999599933624268 4.897110462188721 3.999599933624268 6.000300884246826 L 3.999599933624268 45 C 3.999599933624268 46.10269165039062 4.897109985351562 46.99980163574219 6.00029993057251 46.99980163574219 L 29.99970054626465 46.99980163574219 C 31.10289001464844 46.99980163574219 32.00040054321289 46.10269165039062 32.00040054321289 45 L 32.00040054321289 6.000300884246826 C 32.00040054321289 4.897110462188721 31.10289001464844 3.999600648880005 29.99970054626465 3.999600648880005 L 6.00029993057251 3.999600648880005 Z"/></g><path class="b" d="M-2.12-10.2a1.948,1.948,0,0,1,.17-.84,1.669,1.669,0,0,1,.47-.6,2.214,2.214,0,0,1,.69-.37,2.545,2.545,0,0,1,.81-.13,2.451,2.451,0,0,1,1.07.2,1.759,1.759,0,0,1,.64.5,1.685,1.685,0,0,1,.31.63,2.6,2.6,0,0,1,.08.61,1.636,1.636,0,0,1-.6,1.37,2.358,2.358,0,0,1-1.5.47,2.465,2.465,0,0,1-1.5-.47A1.594,1.594,0,0,1-2.12-10.2Zm-2.58-.26a3.2,3.2,0,0,0,.52,1.82A2.6,2.6,0,0,0-2.64-7.58v.04a3.334,3.334,0,0,0-1.95,1.2A3.573,3.573,0,0,0-5.28-4.1a4.016,4.016,0,0,0,.45,1.96A4.061,4.061,0,0,0-3.63-.78a5.1,5.1,0,0,0,1.7.79A7.709,7.709,0,0,0,.04.26,6.921,6.921,0,0,0,1.96-.01,5.309,5.309,0,0,0,3.64-.82,4.106,4.106,0,0,0,4.83-2.18a3.973,3.973,0,0,0,.45-1.94A3.62,3.62,0,0,0,4.6-6.35,3.183,3.183,0,0,0,2.66-7.54v-.04A2.817,2.817,0,0,0,4.19-8.7a3.25,3.25,0,0,0,.51-1.82,3.421,3.421,0,0,0-.24-1.17,3.512,3.512,0,0,0-.79-1.22,4.558,4.558,0,0,0-1.45-.97,5.406,5.406,0,0,0-2.2-.4,6.16,6.16,0,0,0-1.7.24,4.863,4.863,0,0,0-1.51.72,3.836,3.836,0,0,0-1.09,1.2A3.234,3.234,0,0,0-4.7-10.46Zm2.26,6.22a1.98,1.98,0,0,1,.72-1.65A2.747,2.747,0,0,1,.04-6.46a2.646,2.646,0,0,1,.93.16,2.322,2.322,0,0,1,.76.46,2.2,2.2,0,0,1,.52.71,2.138,2.138,0,0,1,.19.91,2.511,2.511,0,0,1-.18.96,2.111,2.111,0,0,1-.51.75,2.373,2.373,0,0,1-.76.48,2.563,2.563,0,0,1-.95.17,2.747,2.747,0,0,1-.96-.17,2.305,2.305,0,0,1-.79-.48,2.349,2.349,0,0,1-.53-.75A2.341,2.341,0,0,1-2.44-4.24ZM0,2.9l-7.2,9.36L0,21.88l7.2-9.62Z" transform="translate(234 219)"/></g></svg>