<svg xmlns="http://www.w3.org/2000/svg" width="36" height="51" viewBox="0 0 36 51"><defs><style>.a{fill:#fff;}.b,.c{stroke:none;}</style></defs><g transform="translate(-216 -197)"><g class="a" transform="translate(216 197)"><path class="b" d="M 29.99970054626465 49.00030136108398 L 6.00029993057251 49.00030136108398 C 4.819329738616943 49.00030136108398 3.756238460540771 48.48588562011719 3.023334980010986 47.66936874389648 C 3.756303548812866 48.48562240600586 4.819346904754639 48.99980163574219 6.00029993057251 48.99980163574219 L 29.99970054626465 48.99980163574219 C 31.1806526184082 48.99980163574219 32.24369812011719 48.48562240600586 32.97666549682617 47.66936874389648 C 32.2437629699707 48.48588562011719 31.1806697845459 49.00030136108398 29.99970054626465 49.00030136108398 Z"/><path class="c" d="M 29.99970054626465 51.00030136108398 L 6.00029993057251 51.00030136108398 C 2.691720008850098 51.00030136108398 0 48.3085823059082 0 45 L 0 6.000300884246826 C 0 2.691720724105835 2.691720008850098 6.805419729971618e-07 6.00029993057251 6.805419729971618e-07 L 29.99970054626465 6.805419729971618e-07 C 33.30828094482422 6.805419729971618e-07 36 2.691720724105835 36 6.000300884246826 L 36 45 C 36 48.3085823059082 33.30828094482422 51.00030136108398 29.99970054626465 51.00030136108398 Z M 6.00029993057251 3.999600648880005 C 4.897109985351562 3.999600648880005 3.999599933624268 4.897110462188721 3.999599933624268 6.000300884246826 L 3.999599933624268 45 C 3.999599933624268 46.10269165039062 4.897109985351562 46.99980163574219 6.00029993057251 46.99980163574219 L 29.99970054626465 46.99980163574219 C 31.10289001464844 46.99980163574219 32.00040054321289 46.10269165039062 32.00040054321289 45 L 32.00040054321289 6.000300884246826 C 32.00040054321289 4.897110462188721 31.10289001464844 3.999600648880005 29.99970054626465 3.999600648880005 L 6.00029993057251 3.999600648880005 Z"/></g><path d="M-.16-6.74a1.909,1.909,0,0,1-.95-.23,2,2,0,0,1-.67-.6,2.7,2.7,0,0,1-.39-.84,3.622,3.622,0,0,1-.13-.97,3.211,3.211,0,0,1,.14-.94,2.514,2.514,0,0,1,.42-.82,2.189,2.189,0,0,1,.68-.58,1.836,1.836,0,0,1,.9-.22,2.038,2.038,0,0,1,.96.22,2.172,2.172,0,0,1,.71.59,2.659,2.659,0,0,1,.44.84,3.108,3.108,0,0,1,.15.95,3.45,3.45,0,0,1-.14.99,2.5,2.5,0,0,1-.42.83,2.016,2.016,0,0,1-.7.57A2.213,2.213,0,0,1-.16-6.74ZM-2.2-3.6H-4.9a4.82,4.82,0,0,0,.5,1.64A4,4,0,0,0-3.42-.74,4.074,4.074,0,0,0-2.04.01,5.474,5.474,0,0,0-.36.26,4.7,4.7,0,0,0,2.18-.39a5.309,5.309,0,0,0,1.7-1.7,7.582,7.582,0,0,0,.96-2.35,11.529,11.529,0,0,0,.3-2.6A14.4,14.4,0,0,0,4.9-9.66a6.906,6.906,0,0,0-.86-2.33,4.854,4.854,0,0,0-1.65-1.66,4.972,4.972,0,0,0-2.63-.63,4.871,4.871,0,0,0-2,.4,4.759,4.759,0,0,0-1.55,1.09,4.8,4.8,0,0,0-1,1.62,5.661,5.661,0,0,0-.35,2.01A5.462,5.462,0,0,0-4.88-7.5a4.053,4.053,0,0,0,.82,1.46A4.4,4.4,0,0,0-2.6-4.99,4.221,4.221,0,0,0-.84-4.6a4.253,4.253,0,0,0,1.8-.36,3.4,3.4,0,0,0,1.36-1.2l.04.04A12.824,12.824,0,0,1,2.19-4.8a5.623,5.623,0,0,1-.43,1.39,3.345,3.345,0,0,1-.8,1.1,1.841,1.841,0,0,1-1.28.45,1.651,1.651,0,0,1-1.24-.52A2.409,2.409,0,0,1-2.2-3.6ZM2.54,21.08a8.645,8.645,0,0,1-1.4-2.38A11.839,11.839,0,0,1,.6,15.18c0-.78.02-.9.18-.9.1,0,.18.1.22.28a3.7,3.7,0,0,0,.44,1.4,3.718,3.718,0,0,0,3.34,2.2,3.932,3.932,0,0,0,2.76-1.2,4.109,4.109,0,0,0,1.06-2.9,3.722,3.722,0,0,0-3.92-3.64,3.078,3.078,0,0,0-2.4.92c-.2.2-.28.24-.4.24a.2.2,0,0,1-.2-.18c0-.1.08-.22.26-.36a4.555,4.555,0,0,0,.68-.7A4.257,4.257,0,0,0,3.76,7.46,3.85,3.85,0,0,0-.04,3.6,3.9,3.9,0,0,0-3.2,5.32,4.059,4.059,0,0,0-3.78,7.4a4.626,4.626,0,0,0,1.3,3.1c.78.78.78.78.78.88a.222.222,0,0,1-.22.22c-.08,0-.16-.04-.36-.2a3.638,3.638,0,0,0-2.56-.98,3.645,3.645,0,0,0-3.76,3.8,3.838,3.838,0,0,0,3.68,3.9,3.519,3.519,0,0,0,2.54-.96,4.074,4.074,0,0,0,1.26-2.12c.14-.74.14-.76.3-.76.14,0,.2.14.2.44a12.74,12.74,0,0,1-.4,3.46,9.166,9.166,0,0,1-1.54,2.9A15.077,15.077,0,0,1-.1,20.92,18.913,18.913,0,0,1,2.54,21.08Z" transform="translate(234 219)"/></g></svg>