<svg xmlns="http://www.w3.org/2000/svg" width="36" height="51" viewBox="0 0 36 51"><defs><style>.a{fill:#fff;}.b,.c{stroke:none;}</style></defs><g transform="translate(-216 -197)"><g class="a" transform="translate(216 197)"><path class="b" d="M 29.99970054626465 49.00030136108398 L 6.00029993057251 49.00030136108398 C 4.819329738616943 49.00030136108398 3.756238460540771 48.48588562011719 3.023334980010986 47.66936874389648 C 3.756303548812866 48.48562240600586 4.819346904754639 48.99980163574219 6.00029993057251 48.99980163574219 L 29.99970054626465 48.99980163574219 C 31.1806526184082 48.99980163574219 32.24369812011719 48.48562240600586 32.97666549682617 47.66936874389648 C 32.2437629699707 48.48588562011719 31.1806697845459 49.00030136108398 29.99970054626465 49.00030136108398 Z"/><path class="c" d="M 29.99970054626465 51.00030136108398 L 6.00029993057251 51.00030136108398 C 2.691720008850098 51.00030136108398 0 48.3085823059082 0 45 L 0 6.000300884246826 C 0 2.691720724105835 2.691720008850098 6.805419729971618e-07 6.00029993057251 6.805419729971618e-07 L 29.99970054626465 6.805419729971618e-07 C 33.30828094482422 6.805419729971618e-07 36 2.691720724105835 36 6.000300884246826 L 36 45 C 36 48.3085823059082 33.30828094482422 51.00030136108398 29.99970054626465 51.00030136108398 Z M 6.00029993057251 3.999600648880005 C 4.897109985351562 3.999600648880005 3.999599933624268 4.897110462188721 3.999599933624268 6.000300884246826 L 3.999599933624268 45 C 3.999599933624268 46.10269165039062 4.897109985351562 46.99980163574219 6.00029993057251 46.99980163574219 L 29.99970054626465 46.99980163574219 C 31.10289001464844 46.99980163574219 32.00040054321289 46.10269165039062 32.00040054321289 45 L 32.00040054321289 6.000300884246826 C 32.00040054321289 4.897110462188721 31.10289001464844 3.999600648880005 29.99970054626465 3.999600648880005 L 6.00029993057251 3.999600648880005 Z"/></g><path d="M-.16-6.74a1.909,1.909,0,0,1-.95-.23,2,2,0,0,1-.67-.6,2.7,2.7,0,0,1-.39-.84,3.622,3.622,0,0,1-.13-.97,3.211,3.211,0,0,1,.14-.94,2.514,2.514,0,0,1,.42-.82,2.189,2.189,0,0,1,.68-.58,1.836,1.836,0,0,1,.9-.22,2.038,2.038,0,0,1,.96.22,2.172,2.172,0,0,1,.71.59,2.659,2.659,0,0,1,.44.84,3.108,3.108,0,0,1,.15.95,3.45,3.45,0,0,1-.14.99,2.5,2.5,0,0,1-.42.83,2.016,2.016,0,0,1-.7.57A2.213,2.213,0,0,1-.16-6.74ZM-2.2-3.6H-4.9a4.82,4.82,0,0,0,.5,1.64A4,4,0,0,0-3.42-.74,4.074,4.074,0,0,0-2.04.01,5.474,5.474,0,0,0-.36.26,4.7,4.7,0,0,0,2.18-.39a5.309,5.309,0,0,0,1.7-1.7,7.582,7.582,0,0,0,.96-2.35,11.529,11.529,0,0,0,.3-2.6A14.4,14.4,0,0,0,4.9-9.66a6.906,6.906,0,0,0-.86-2.33,4.854,4.854,0,0,0-1.65-1.66,4.972,4.972,0,0,0-2.63-.63,4.871,4.871,0,0,0-2,.4,4.759,4.759,0,0,0-1.55,1.09,4.8,4.8,0,0,0-1,1.62,5.661,5.661,0,0,0-.35,2.01A5.462,5.462,0,0,0-4.88-7.5a4.053,4.053,0,0,0,.82,1.46A4.4,4.4,0,0,0-2.6-4.99,4.221,4.221,0,0,0-.84-4.6a4.253,4.253,0,0,0,1.8-.36,3.4,3.4,0,0,0,1.36-1.2l.04.04A12.824,12.824,0,0,1,2.19-4.8a5.623,5.623,0,0,1-.43,1.39,3.345,3.345,0,0,1-.8,1.1,1.841,1.841,0,0,1-1.28.45,1.651,1.651,0,0,1-1.24-.52A2.409,2.409,0,0,1-2.2-3.6ZM.02,3.58c-.62.9-.86,1.22-1.8,2.38A53.07,53.07,0,0,0-5.7,10.98a6.824,6.824,0,0,0-1.42,3.88A3.426,3.426,0,0,0-3.68,18.6a2.447,2.447,0,0,0,2.1-.88,5.011,5.011,0,0,0,.84-1.7q.03-.12.12-.12c.1,0,.16.1.16.26A13.226,13.226,0,0,1-.92,18.5,6.1,6.1,0,0,1-2.5,21.16,11.6,11.6,0,0,1,.02,20.9a15.61,15.61,0,0,1,2.42.26,7.833,7.833,0,0,1-1.5-2.52,10.027,10.027,0,0,1-.5-2.42c0-.18.06-.32.16-.32s.16.12.24.5a2.683,2.683,0,0,0,2.82,2.2A3.449,3.449,0,0,0,5.64,18,3.787,3.787,0,0,0,7.1,14.92a6.707,6.707,0,0,0-.74-2.74A24.2,24.2,0,0,0,3.68,8.32C1.44,5.46,1.44,5.46.02,3.58Z" transform="translate(234 219)"/></g></svg>