<svg xmlns="http://www.w3.org/2000/svg" width="36" height="51" viewBox="0 0 36 51"><defs><style>.a{fill:#fff;}.b{fill-rule:evenodd;}.c,.d{stroke:none;}</style></defs><g transform="translate(-216 -197)"><g class="a" transform="translate(216 197)"><path class="c" d="M 29.99970054626465 49.00030136108398 L 6.00029993057251 49.00030136108398 C 4.819329738616943 49.00030136108398 3.756238460540771 48.48588562011719 3.023334980010986 47.66936874389648 C 3.756303548812866 48.48562240600586 4.819346904754639 48.99980163574219 6.00029993057251 48.99980163574219 L 29.99970054626465 48.99980163574219 C 31.1806526184082 48.99980163574219 32.24369812011719 48.48562240600586 32.97666549682617 47.66936874389648 C 32.2437629699707 48.48588562011719 31.1806697845459 49.00030136108398 29.99970054626465 49.00030136108398 Z"/><path class="d" d="M 29.99970054626465 51.00030136108398 L 6.00029993057251 51.00030136108398 C 2.691720008850098 51.00030136108398 0 48.3085823059082 0 45 L 0 6.000300884246826 C 0 2.691720724105835 2.691720008850098 6.805419729971618e-07 6.00029993057251 6.805419729971618e-07 L 29.99970054626465 6.805419729971618e-07 C 33.30828094482422 6.805419729971618e-07 36 2.691720724105835 36 6.000300884246826 L 36 45 C 36 48.3085823059082 33.30828094482422 51.00030136108398 29.99970054626465 51.00030136108398 Z M 6.00029993057251 3.999600648880005 C 4.897109985351562 3.999600648880005 3.999599933624268 4.897110462188721 3.999599933624268 6.000300884246826 L 3.999599933624268 45 C 3.999599933624268 46.10269165039062 4.897109985351562 46.99980163574219 6.00029993057251 46.99980163574219 L 29.99970054626465 46.99980163574219 C 31.10289001464844 46.99980163574219 32.00040054321289 46.10269165039062 32.00040054321289 45 L 32.00040054321289 6.000300884246826 C 32.00040054321289 4.897110462188721 31.10289001464844 3.999600648880005 29.99970054626465 3.999600648880005 L 6.00029993057251 3.999600648880005 Z"/></g><path class="b" d="M53.828,56.317a4.934,4.934,0,0,1-.2,1.727.911.911,0,0,0,.374.849,2.245,2.245,0,0,1,.675.834,1.15,1.15,0,0,1-.381,1.2,3.474,3.474,0,0,1-.952.612c-.151.532-.411,1.266-.679,1.934-.34.849-.694,1.593-1.027,2.26-.145.29-.286.566-.424.8a1.111,1.111,0,0,1,.271.4,3.453,3.453,0,0,0,.282.677.882.882,0,0,0,.622.33,1.541,1.541,0,0,0,.844-.154,1.882,1.882,0,0,0,.237-.137,1.057,1.057,0,0,1-.24-.675,1.011,1.011,0,1,1,1.01,1.042.98.98,0,0,1-.3-.045,1.469,1.469,0,0,1-1.15.784,4.755,4.755,0,0,1-2.026-.08,4.394,4.394,0,0,1-1.736-.889.7.7,0,0,1-.233-.9,2.534,2.534,0,0,1,.685-.843c.248-.193.443-.234.6-.125l.02.015c.048-.385.141-.821.224-1.256.136-.709.245-1.41.3-1.986.032-.334.045-.626.1-.9a1.366,1.366,0,0,1-.825-1.213,3.109,3.109,0,0,1,.226-1.09,1.194,1.194,0,0,0-.054-.912,6.173,6.173,0,0,0-.729-1.113,3.79,3.79,0,0,1-.592-.881c-.019-.041-.038-.085-.056-.131a12.076,12.076,0,0,1-1.415-.113c-.653-.091-1.116-.218-1.463-.267a1.084,1.084,0,0,0-.844.154,7.064,7.064,0,0,1-.925.667,1.441,1.441,0,0,1-.612.137c-.014.107.027-.125-.051.341a21.974,21.974,0,0,1-.533,2.767l.1.03a1.07,1.07,0,0,1,.657.45,1.789,1.789,0,0,1,.112,1.292,1.62,1.62,0,0,1-1.009,1.038,8.34,8.34,0,0,1-2.378.649,4.258,4.258,0,0,1-2.016-.17,1.463,1.463,0,0,1-.774-.669h-.03a1.043,1.043,0,1,1,1.01-1.042,1.056,1.056,0,0,1-.26.7,2.281,2.281,0,0,0,1.21.211,1.669,1.669,0,0,0,.966-.45,1.961,1.961,0,0,0,.537-.813c.1-.292.1-.587.178-.807a.814.814,0,0,1,.423-.445c-.122-.877-.252-2.164-.319-3.119a13.16,13.16,0,0,1-.044-1.487,2.842,2.842,0,0,1-.367-.9A1.757,1.757,0,0,1,41,53.324a2.793,2.793,0,0,1,1.1-1.084,2.638,2.638,0,0,1,1.529-.222,15.2,15.2,0,0,0,1.816.189c.551-.021.973-.218,1.483-.2.353.011.427.176.556-.226s.344-1.836-.429-1.489a3.78,3.78,0,0,1-1.672.358,4.063,4.063,0,0,1-2.087-.392,1.351,1.351,0,0,1-.5-1.449q-.08-.1-.159-.212a9.576,9.576,0,0,1-1.1-2.041c-.226-.573-.105-.8-.629-.974a2.082,2.082,0,0,0-.6-.111,1.848,1.848,0,0,1-1.637-.679,1.834,1.834,0,0,1-.452-.771.538.538,0,0,1,.155-.529,1.559,1.559,0,0,1,.6-.4.872.872,0,0,1,.645.009,1.346,1.346,0,0,1,.432.385,1.862,1.862,0,0,0,.319.32c.093.063.172.07.22.032s.064-.118.107-.256a.976.976,0,0,1,.234-.44.4.4,0,0,1,.438-.056.374.374,0,0,1,.188.408,5.332,5.332,0,0,1-.255.525.344.344,0,0,0,.1.38c.1.09.238.14.345.245.33.323,1.057,1.282,1.362,1.677s.607.811.867,1.189a3.3,3.3,0,0,0,.7-.318,1.083,1.083,0,0,0,.3-.782.911.911,0,0,1,.483-.832,2.8,2.8,0,0,1,1.281-.153,1.387,1.387,0,0,1-.169-.756.7.7,0,0,1,.795-.5,3.347,3.347,0,0,1,.938.294,2.7,2.7,0,0,1-.284-1.76,3.812,3.812,0,0,1,.089-.431,1.447,1.447,0,0,1-.293-.237.812.812,0,0,1-.212-.667c.012-.251.063-.549.079-.87a2.3,2.3,0,0,0-.141-1,1.385,1.385,0,0,0-.745-.787,1.169,1.169,0,0,0-1.119.155,1.183,1.183,0,0,0-.238.278.941.941,0,0,1,.176.551.9.9,0,1,1-.912-.926,3.276,3.276,0,0,1,.713-1.286,2.377,2.377,0,0,1,1.648-.7,2.487,2.487,0,0,1,1.652.528c.417.354.627.87.814.923s.35-.358.668-.733a2.9,2.9,0,0,1,1.33-.881,2.528,2.528,0,0,1,1.721.086,3.065,3.065,0,0,1,1.438,1.27,3.013,3.013,0,0,1,.35,1.089A1.053,1.053,0,1,1,54,40.115a1.059,1.059,0,0,1,.5-.9q-.024-.038-.051-.075a1.873,1.873,0,0,0-1.3-.765A1.927,1.927,0,0,0,51.616,39a1.721,1.721,0,0,0-.335,1.328c.053.391.205.64.245.941a.742.742,0,0,1-.265.738,3.767,3.767,0,0,1,.063,1.965,1.761,1.761,0,0,1-.086.231,1.676,1.676,0,0,1,.742-.325.781.781,0,0,1,.7.547,1.393,1.393,0,0,1,.082.671,1.974,1.974,0,0,1,.4.084,1.763,1.763,0,0,1,.966.849c.211.358.347.737.582.849s.568-.042.881.133a.96.96,0,0,1,.221.179,5.17,5.17,0,0,1,.473-.6c.319-.348.621-.567.917-.855a8.858,8.858,0,0,0,.556-.725.346.346,0,0,0,.007-.395c-.091-.141-.3-.281-.376-.441a.379.379,0,0,1,.081-.444.4.4,0,0,1,.437-.061.955.955,0,0,1,.335.364c.075.122.111.2.166.22s.13,0,.2-.089a1.907,1.907,0,0,0,.229-.393,1.378,1.378,0,0,1,.323-.486.879.879,0,0,1,.622-.178,1.531,1.531,0,0,1,.679.234.529.529,0,0,1,.28.471,1.864,1.864,0,0,1-.247.865,1.882,1.882,0,0,1-1.415,1.086,2.111,2.111,0,0,0-.552.265c-.242.16-.214.094-.313.37a6.726,6.726,0,0,1-.7,1.492,8.246,8.246,0,0,1-1.191,1.43,1.644,1.644,0,0,1-.164.881c-.177.232-.558.274-.782.4s-.293.337-.578.407a3.235,3.235,0,0,1-1.476-.21c-1.216-.373-1.052-.632-.841.933a11.09,11.09,0,0,1,.177,1.93C52.617,54.838,53.59,54.9,53.828,56.317Z" transform="translate(185.754 169.662)"/></g></svg>